<?xml version="1.0" standalone="no"?>
<!DOCTYPE svg PUBLIC "-//W3C//DTD SVG 20010904//EN"
 "http://www.w3.org/TR/2001/REC-SVG-20010904/DTD/svg10.dtd">
<svg version="1.0" xmlns="http://www.w3.org/2000/svg"
 width="500.000000pt" height="500.000000pt" viewBox="0 0 500.000000 500.000000"
 preserveAspectRatio="xMidYMid meet">

<g transform="translate(0.000000,500.000000) scale(0.100000,-0.100000)"
fill="#000000" stroke="none">
<path d="M2344 4834 c-16 -65 40 -138 88 -113 29 16 17 66 -27 107 -42 39 -53
40 -61 6z"/>
<path d="M2640 4830 c-16 -38 -6 -92 21 -116 21 -18 21 -18 40 5 25 30 24 65
-2 107 -26 42 -43 43 -59 4z"/>
<path d="M2755 4786 c-30 -72 -20 -166 27 -233 39 -58 62 -69 86 -42 40 42 35
167 -8 230 -60 88 -83 98 -105 45z"/>
<path d="M1790 4768 c-39 -86 -16 -202 54 -267 35 -33 52 -22 72 45 14 48 15
66 5 110 -13 56 -57 126 -91 144 -18 10 -23 7 -40 -32z"/>
<path d="M2225 4781 c-48 -29 -65 -54 -77 -115 -14 -64 -4 -93 28 -88 67 12
130 154 92 205 -12 16 -15 16 -43 -2z"/>
<path d="M2538 4749 c-55 -52 -72 -145 -42 -232 19 -57 39 -60 84 -16 38 39
60 89 60 141 0 47 -37 138 -56 138 -8 0 -29 -14 -46 -31z"/>
<path d="M2978 4744 c-15 -8 -35 -28 -43 -44 -17 -33 -20 -96 -4 -105 17 -11
52 2 82 31 25 23 28 32 25 77 -3 58 -15 66 -60 41z"/>
<path d="M2060 4716 c0 -19 8 -44 19 -57 16 -20 21 -21 35 -10 23 19 20 48 -9
76 -33 34 -45 31 -45 -9z"/>
<path d="M1978 4695 c-24 -32 -24 -106 0 -135 l18 -22 27 32 c19 23 27 43 27
71 0 75 -37 103 -72 54z"/>
<path d="M3209 4683 c-13 -34 -5 -68 27 -115 61 -89 125 -28 75 71 -19 36 -58
71 -81 71 -6 0 -15 -12 -21 -27z"/>
<path d="M2346 4681 c-37 -25 -55 -57 -56 -98 0 -41 20 -43 72 -8 28 19 38 33
43 64 11 64 -7 76 -59 42z"/>
<path d="M1644 4665 c-13 -32 6 -85 36 -100 37 -19 56 -19 64 1 11 30 6 53
-20 83 -28 33 -71 42 -80 16z"/>
<path d="M3124 4622 c-26 -17 -54 -88 -54 -138 l0 -52 -55 -4 c-70 -6 -115
-43 -115 -95 0 -30 3 -33 30 -33 46 0 94 24 119 59 27 37 38 39 50 7 23 -58
81 -26 105 57 13 46 14 60 1 105 -22 85 -49 116 -81 94z"/>
<path d="M3414 4622 c-23 -16 -54 -81 -54 -113 0 -40 31 -103 52 -107 8 -2 27
15 43 37 32 48 36 98 12 154 -15 36 -31 45 -53 29z"/>
<path d="M1487 4561 c-49 -83 17 -251 97 -251 7 0 21 28 30 64 22 78 12 118
-41 177 -42 47 -63 49 -86 10z"/>
<path d="M2970 4560 c-45 -12 -69 -34 -85 -73 -22 -54 -19 -67 12 -67 70 0
123 47 123 110 0 32 -14 40 -50 30z"/>
<path d="M2068 4540 c-15 -11 -30 -20 -35 -20 -14 0 -64 -70 -74 -103 -5 -18
-9 -60 -9 -95 0 -74 13 -85 63 -50 74 50 109 118 109 210 -1 68 -19 86 -54 58z"/>
<path d="M2721 4526 c-19 -22 -5 -68 31 -105 37 -38 56 -39 64 -6 17 67 -59
155 -95 111z"/>
<path d="M1672 4481 c-17 -56 -15 -80 14 -138 27 -52 79 -98 118 -105 26 -4
46 35 46 92 0 55 -40 128 -89 165 -51 37 -75 33 -89 -14z"/>
<path d="M2227 4496 c-51 -41 -67 -75 -67 -143 0 -72 10 -78 61 -41 57 42 90
128 70 181 -13 33 -27 34 -64 3z"/>
<path d="M2355 4510 c-10 -15 5 -72 24 -94 9 -10 36 -27 60 -38 35 -15 46 -16
53 -6 9 14 2 62 -14 91 -21 40 -107 73 -123 47z"/>
<path d="M3517 4487 c-21 -16 -29 -32 -30 -57 -2 -31 1 -35 25 -38 32 -4 78
36 78 67 0 55 -27 65 -73 28z"/>
<path d="M3286 4468 c-20 -29 -20 -71 0 -109 35 -68 88 -5 62 74 -15 50 -41
65 -62 35z"/>
<path d="M2632 4452 c-48 -40 -72 -82 -72 -127 0 -53 12 -69 41 -61 29 8 48
22 77 60 l22 29 0 -46 c0 -38 5 -50 36 -81 41 -41 49 -43 64 -17 33 63 -16
171 -77 171 -13 0 -24 6 -24 13 -1 6 -2 17 -4 22 -1 6 -3 22 -3 38 -2 34 -18
34 -60 -1z"/>
<path d="M1344 4456 c-3 -9 -1 -30 5 -47 9 -27 8 -32 -8 -36 -22 -6 -51 -63
-51 -102 0 -16 9 -39 20 -52 l20 -24 20 23 c25 30 35 84 22 122 -12 34 -8 36
28 15 37 -21 70 -19 70 4 0 51 -36 92 -94 107 -19 4 -28 2 -32 -10z"/>
<path d="M3614 4389 c-56 -28 -57 -165 -1 -226 17 -19 18 -23 5 -23 -9 0 -30
-12 -47 -26 -26 -22 -31 -33 -31 -71 l0 -46 37 6 c20 4 45 15 56 26 23 23 37
111 17 111 -9 0 -6 8 7 23 51 55 58 116 25 198 -8 21 -34 43 -45 38 -1 0 -11
-5 -23 -10z"/>
<path d="M3460 4372 c-37 -17 -60 -40 -62 -62 -7 -55 117 -44 152 13 11 17 16
35 11 40 -12 12 -83 18 -101 9z"/>
<path d="M3222 4343 c-19 -8 -44 -75 -37 -103 19 -82 44 -99 83 -57 28 30 29
90 2 135 -20 32 -24 35 -48 25z"/>
<path d="M1164 4332 c-26 -17 -47 -78 -47 -137 -1 -52 4 -69 29 -108 22 -36
35 -46 55 -47 15 0 29 7 33 15 7 18 26 20 26 3 1 -29 17 -41 39 -28 51 27 79
122 46 150 -13 11 -21 8 -45 -15 l-30 -29 0 35 c0 54 -17 101 -50 137 -33 34
-38 36 -56 24z"/>
<path d="M2377 4333 c-30 -29 29 -91 90 -94 23 -2 45 -1 47 2 3 2 -3 20 -11
38 -22 44 -102 78 -126 54z"/>
<path d="M3750 4321 c-5 -11 -10 -30 -10 -43 0 -25 34 -88 48 -88 19 0 42 39
42 71 0 64 -55 106 -80 60z"/>
<path d="M2237 4302 c-36 -37 -43 -105 -12 -110 33 -5 95 56 102 101 6 37 5
37 -29 37 -25 0 -42 -8 -61 -28z"/>
<path d="M2951 4277 c-27 -14 -56 -51 -66 -84 -6 -22 -3 -23 40 -23 25 0 60 7
76 16 31 15 65 76 54 94 -9 14 -75 12 -104 -3z"/>
<path d="M1666 4264 c-12 -31 -6 -71 14 -89 19 -17 21 -17 40 0 24 22 25 47 4
80 -18 28 -49 33 -58 9z"/>
<path d="M1413 4248 c-40 -13 -43 -39 -7 -63 53 -35 115 -37 163 -6 33 22 -43
83 -101 80 -13 -1 -38 -6 -55 -11z"/>
<path d="M3418 4244 c-65 -27 -57 -64 18 -78 45 -9 124 24 124 52 0 39 -76 53
-142 26z"/>
<path d="M2040 4221 c0 -58 66 -132 105 -117 18 6 20 55 4 89 -20 44 -109 67
-109 28z"/>
<path d="M2309 4203 c-53 -30 -77 -68 -86 -131 l-6 -44 34 7 c76 17 149 99
149 169 0 35 -29 34 -91 -1z"/>
<path d="M2655 4218 c-17 -50 -7 -103 24 -136 64 -67 101 -67 101 0 0 48 -19
82 -66 122 -35 29 -52 33 -59 14z"/>
<path d="M3112 4218 c-5 -7 -15 -30 -23 -50 -25 -71 30 -165 80 -138 18 9 21
20 21 73 0 55 -3 66 -31 95 -34 37 -33 36 -47 20z"/>
<path d="M3883 4185 c-27 -27 -34 -41 -31 -66 8 -86 118 -43 118 46 0 64 -34
73 -87 20z"/>
<path d="M1756 4188 c-27 -38 -18 -98 15 -98 21 0 39 28 39 64 0 57 -27 74
-54 34z"/>
<path d="M2410 4189 c0 -34 66 -89 109 -89 39 0 25 62 -20 85 -33 17 -89 20
-89 4z"/>
<path d="M957 4150 c-8 -30 10 -83 34 -100 20 -16 20 -16 1 -40 -27 -36 -52
-105 -51 -143 0 -17 8 -52 18 -77 16 -38 23 -45 47 -45 23 0 31 8 52 49 35 71
39 122 13 181 -22 49 -18 64 17 65 16 0 15 23 -3 66 -22 54 -117 87 -128 44z"/>
<path d="M3755 4162 c-6 -4 -23 -22 -38 -40 -23 -29 -27 -42 -27 -99 0 -53 5
-75 25 -110 14 -23 32 -43 39 -43 8 0 28 16 45 35 28 32 31 42 31 101 0 53 -5
76 -27 115 -27 51 -31 54 -48 41z"/>
<path d="M3374 4140 c-17 -5 -39 -19 -50 -31 -18 -20 -18 -21 0 -34 36 -27 98
-29 139 -5 35 21 49 52 29 64 -19 11 -89 15 -118 6z"/>
<path d="M2975 4131 c-57 -12 -95 -54 -95 -107 0 -24 2 -26 31 -20 17 3 50 15
74 25 35 15 46 27 53 53 6 20 5 38 -1 46 -10 13 -14 13 -62 3z"/>
<path d="M1503 4123 c-37 -7 -48 -29 -29 -58 20 -30 57 -41 131 -36 68 4 71
43 6 79 -37 21 -60 24 -108 15z"/>
<path d="M1820 4111 c-16 -31 -12 -86 8 -104 26 -23 29 -22 51 21 20 38 20 39
1 70 -22 36 -45 41 -60 13z"/>
<path d="M2017 4113 c-4 -3 -7 -30 -7 -60 0 -47 4 -57 33 -83 55 -51 108 -32
98 35 -4 29 -48 83 -81 100 -33 17 -34 17 -43 8z"/>
<path d="M2389 4096 c-15 -13 -30 -37 -34 -55 -5 -22 -12 -31 -26 -31 -28 0
-92 -35 -105 -57 -33 -54 -24 -120 14 -105 51 21 83 50 99 88 14 34 21 41 34
33 26 -14 79 40 79 81 0 32 -15 70 -28 70 -4 0 -19 -11 -33 -24z"/>
<path d="M2464 4079 c-11 -18 20 -40 63 -46 50 -7 66 12 33 39 -24 20 -85 24
-96 7z"/>
<path d="M1341 4034 c-34 -43 -24 -144 14 -144 25 0 55 50 55 92 0 76 -32 99
-69 52z"/>
<path d="M3034 4024 c-15 -37 -12 -62 14 -101 18 -28 38 -29 52 -4 26 49 -2
140 -43 141 -4 0 -15 -16 -23 -36z"/>
<path d="M3990 4054 c-88 -29 -120 -67 -120 -144 0 -40 0 -40 40 -40 89 0 140
48 140 133 0 47 -19 64 -60 51z"/>
<path d="M3291 4016 c-76 -27 -63 -70 24 -81 55 -7 120 17 120 45 0 17 -60 50
-90 49 -11 0 -35 -6 -54 -13z"/>
<path d="M812 3985 c-35 -76 20 -186 77 -155 21 11 33 68 24 111 -6 32 -45 69
-73 69 -9 0 -22 -11 -28 -25z"/>
<path d="M1614 3985 c-10 -25 3 -43 36 -50 43 -9 100 2 100 20 0 36 -124 63
-136 30z"/>
<path d="M2458 3984 c-35 -18 -48 -43 -48 -88 0 -42 17 -47 60 -16 45 32 65
121 28 120 -7 -1 -25 -7 -40 -16z"/>
<path d="M3502 3980 c-53 -12 -102 -70 -102 -119 0 -43 137 -35 187 11 14 12
32 38 40 57 14 32 13 36 -3 48 -19 14 -70 15 -122 3z"/>
<path d="M4084 3965 c-55 -55 -3 -115 65 -74 26 16 31 25 31 59 0 39 -1 40
-35 40 -25 0 -44 -8 -61 -25z"/>
<path d="M2929 3970 c-65 -19 -112 -77 -87 -107 18 -23 90 -11 132 21 36 27
54 62 39 76 -14 13 -57 18 -84 10z"/>
<path d="M1426 3938 c-24 -38 -29 -91 -12 -131 31 -75 91 -28 90 69 -1 30 -7
60 -14 69 -18 22 -47 18 -64 -7z"/>
<path d="M1118 3939 c-23 -13 -23 -24 2 -49 21 -21 83 -27 109 -11 22 14 -10
57 -50 65 -40 8 -40 8 -61 -5z"/>
<path d="M2541 3942 c-19 -13 -5 -47 25 -60 45 -21 114 -13 114 14 0 31 -107
67 -139 46z"/>
<path d="M1738 3912 c-68 -8 -26 -72 47 -72 56 0 71 23 34 51 -28 21 -45 26
-81 21z"/>
<path d="M3213 3889 c-18 -5 -37 -18 -43 -29 -10 -18 -6 -23 32 -40 24 -11 54
-20 67 -20 37 0 111 39 111 59 0 34 -95 51 -167 30z"/>
<path d="M1536 3842 c-14 -21 -26 -46 -26 -55 0 -19 37 -97 46 -97 21 0 43 26
54 65 11 38 10 53 0 85 -17 51 -39 52 -74 2z"/>
<path d="M2478 3844 c-32 -17 -58 -62 -58 -100 0 -25 2 -26 32 -20 48 9 75 31
88 71 20 62 -4 81 -62 49z"/>
<path d="M3658 3833 c-22 -6 -34 -64 -21 -106 11 -40 38 -42 66 -5 17 23 19
33 11 70 -9 43 -20 51 -56 41z"/>
<path d="M4019 3812 c-31 -27 -33 -35 -34 -88 l0 -59 37 3 c89 7 143 60 136
135 -3 31 -4 32 -55 35 -45 3 -56 -1 -84 -26z"/>
<path d="M677 3823 c-12 -11 -7 -97 6 -113 26 -32 71 -60 98 -60 37 0 53 29
44 83 -10 56 -54 97 -104 97 -21 0 -41 -3 -44 -7z"/>
<path d="M1133 3823 c-20 -8 -15 -38 10 -61 19 -18 35 -22 85 -22 76 0 89 16
46 61 -24 25 -35 29 -78 28 -28 0 -57 -3 -63 -6z"/>
<path d="M2829 3814 c-31 -37 -1 -134 41 -134 24 0 35 36 27 86 -10 60 -40 81
-68 48z"/>
<path d="M3820 3822 c-37 -17 -71 -46 -85 -75 -19 -38 -19 -53 1 -61 28 -11
114 -6 148 8 56 23 98 115 60 130 -21 8 -105 6 -124 -2z"/>
<path d="M1813 3810 c-32 -13 -29 -37 7 -55 33 -17 72 -12 92 12 10 13 8 19
-11 34 -25 20 -53 23 -88 9z"/>
<path d="M2236 3798 c-39 -55 -1 -167 56 -168 21 0 43 67 34 103 -6 27 -52 87
-66 87 -5 0 -16 -10 -24 -22z"/>
<path d="M3428 3805 c-26 -15 -46 -51 -34 -63 4 -3 29 -6 56 -6 72 0 118 48
71 74 -27 14 -61 12 -93 -5z"/>
<path d="M1673 3792 c-35 -22 -42 -111 -13 -159 25 -42 43 -42 70 3 44 71 0
192 -57 156z"/>
<path d="M4191 3783 c-11 -10 -24 -32 -27 -50 -6 -28 -3 -33 19 -38 57 -15
140 47 123 91 -8 21 -88 19 -115 -3z"/>
<path d="M3135 3770 c-89 -19 -97 -56 -19 -81 41 -13 62 -15 105 -7 88 16 100
37 41 67 -45 23 -87 30 -127 21z"/>
<path d="M3558 3743 c-9 -10 -19 -28 -22 -39 -6 -19 -11 -21 -44 -13 -43 10
-103 -4 -123 -27 -11 -14 -10 -18 6 -30 30 -22 82 -21 129 3 26 13 29 13 43
-6 8 -12 20 -21 27 -21 25 0 49 39 49 80 0 62 -33 89 -65 53z"/>
<path d="M877 3713 c-4 -3 -7 -20 -7 -37 0 -24 7 -35 31 -48 54 -31 75 -20 64
32 -8 38 -68 74 -88 53z"/>
<path d="M1240 3698 c-60 -31 -64 -54 -11 -68 30 -8 52 -8 84 1 78 21 89 48
27 73 -51 20 -47 20 -100 -6z"/>
<path d="M1093 3692 c-38 -30 -53 -83 -37 -126 18 -48 84 20 84 86 0 47 -18
62 -47 40z"/>
<path d="M1816 3702 c-3 -4 -12 -28 -20 -52 -14 -41 -14 -47 3 -85 34 -77 77
-86 99 -20 8 23 10 55 7 78 -9 53 -71 108 -89 79z"/>
<path d="M2518 3683 c-36 -6 -100 -69 -96 -97 3 -18 9 -21 43 -20 63 2 112 27
132 69 24 51 7 61 -79 48z"/>
<path d="M4120 3673 c-8 -3 -30 -19 -47 -36 -24 -23 -33 -40 -33 -64 l0 -33
57 0 57 0 -26 -27 c-14 -16 -29 -39 -33 -52 l-7 -24 -13 29 c-6 16 -19 35 -27
41 -23 20 -52 -7 -52 -49 0 -70 69 -117 85 -58 4 14 7 20 8 13 1 -6 8 -18 16
-27 20 -20 67 -4 95 31 29 37 27 101 -2 112 l-22 8 22 12 c26 14 62 68 62 93
0 27 -94 48 -140 31z"/>
<path d="M3685 3644 c-22 -7 -41 -14 -42 -14 -2 0 -3 -9 -3 -20 0 -13 10 -22
33 -29 24 -7 27 -9 10 -10 -37 -2 -94 -33 -91 -51 4 -21 80 -36 126 -24 46 11
53 37 15 57 l-28 15 43 12 c47 12 63 34 41 55 -23 21 -61 25 -104 9z"/>
<path d="M3023 3637 c-67 -25 -69 -59 -6 -76 56 -16 83 -13 133 12 52 26 61
57 20 68 -39 11 -112 9 -147 -4z"/>
<path d="M3904 3640 c-52 -21 -84 -111 -50 -139 43 -36 120 35 114 106 -3 41
-22 51 -64 33z"/>
<path d="M570 3601 c0 -67 140 -115 209 -71 18 10 7 42 -26 74 -23 24 -33 26
-104 26 l-79 0 0 -29z"/>
<path d="M2179 3620 c-24 -16 -18 -91 11 -127 30 -38 77 -58 96 -42 23 19 17
79 -12 116 -31 41 -75 65 -95 53z"/>
<path d="M1330 3596 c-25 -12 -45 -29 -45 -36 0 -24 82 -42 129 -28 76 21 88
50 31 74 -46 19 -62 18 -115 -10z"/>
<path d="M1950 3571 c-22 -42 -6 -121 25 -121 7 0 18 15 25 34 22 66 -21 141
-50 87z"/>
<path d="M3378 3583 c-22 -6 -51 -51 -44 -69 9 -22 75 -17 113 9 38 26 49 47
31 59 -13 8 -71 9 -100 1z"/>
<path d="M4324 3580 c-27 -11 -64 -70 -64 -101 0 -40 20 -100 36 -106 23 -9
82 28 95 59 13 31 6 105 -11 138 -12 22 -23 24 -56 10z"/>
<path d="M1138 3568 c-27 -22 -58 -81 -58 -113 0 -41 13 -57 41 -53 29 4 69
70 69 115 0 60 -18 77 -52 51z"/>
<path d="M833 3534 c-3 -9 6 -27 23 -45 23 -24 36 -29 75 -29 56 0 76 18 59
50 -14 27 -49 40 -106 40 -31 0 -46 -5 -51 -16z"/>
<path d="M1480 3503 c-55 -27 -68 -48 -40 -63 36 -19 125 -4 155 27 49 48 -37
75 -115 36z"/>
<path d="M2875 3521 c-11 -5 -33 -21 -49 -36 -35 -32 -26 -45 38 -52 59 -7
128 12 158 44 23 24 23 25 4 39 -22 15 -118 18 -151 5z"/>
<path d="M3120 3488 c1 -38 50 -88 93 -95 34 -5 37 -4 37 18 0 32 -24 65 -60
84 -43 22 -70 20 -70 -7z"/>
<path d="M665 3480 c-4 -6 -1 -25 5 -44 8 -25 19 -36 48 -45 84 -28 121 13 66
70 -22 23 -36 29 -70 29 -24 0 -46 -5 -49 -10z"/>
<path d="M2449 3482 c-51 -22 -89 -73 -89 -118 0 -26 1 -27 47 -20 65 9 123
68 123 126 0 16 -6 20 -32 19 -18 0 -40 -3 -49 -7z"/>
<path d="M3862 3463 c-56 -27 -72 -57 -72 -134 0 -67 1 -69 26 -69 37 0 102
41 115 72 12 28 14 121 4 138 -9 14 -35 12 -73 -7z"/>
<path d="M3562 3458 c-15 -8 -22 -19 -20 -32 6 -40 118 -45 152 -7 16 18 16
20 -6 35 -26 18 -92 20 -126 4z"/>
<path d="M1199 3445 c-31 -17 -51 -60 -51 -110 0 -48 14 -62 45 -48 25 12 67
85 67 117 0 21 -18 56 -28 56 -4 -1 -19 -7 -33 -15z"/>
<path d="M518 3439 c-45 -26 13 -67 76 -55 44 8 53 22 30 47 -19 21 -77 26
-106 8z"/>
<path d="M1605 3419 c-75 -40 -93 -69 -56 -89 53 -28 186 7 212 57 12 22 11
27 -6 39 -28 21 -104 17 -150 -7z"/>
<path d="M855 3410 c-15 -25 9 -63 52 -82 45 -20 105 -19 118 2 12 19 -8 61
-36 75 -31 17 -125 20 -134 5z"/>
<path d="M2975 3393 c-49 -13 -103 -74 -118 -134 -8 -30 10 -99 25 -99 6 0 31
10 55 22 58 29 96 92 95 155 0 40 -14 65 -32 62 -3 -1 -14 -4 -25 -6z"/>
<path d="M1314 3349 c8 -48 45 -90 95 -107 81 -28 108 -5 72 62 -28 53 -79 86
-132 86 l-42 0 7 -41z"/>
<path d="M3100 3375 c0 -60 98 -145 148 -128 32 12 5 79 -48 118 -39 29 -100
35 -100 10z"/>
<path d="M3694 3363 c-21 -23 -25 -35 -21 -67 6 -46 18 -60 44 -52 37 12 55
85 33 127 -14 26 -26 24 -56 -8z"/>
<path d="M4125 3336 c-9 -14 -15 -39 -13 -58 2 -27 8 -34 30 -36 34 -4 61 33
56 80 -2 27 -8 34 -30 36 -20 2 -31 -3 -43 -22z"/>
<path d="M475 3341 c-3 -7 -4 -29 0 -49 7 -44 51 -79 109 -89 46 -7 68 10 59
46 -8 33 -31 69 -52 80 -29 16 -108 24 -116 12z"/>
<path d="M724 3336 c-9 -25 2 -43 37 -61 45 -24 99 -13 99 19 0 33 -23 48 -80
54 -40 4 -51 1 -56 -12z"/>
<path d="M1800 3343 c-31 -6 -100 -60 -100 -79 0 -7 12 -16 28 -20 15 -3 33
-8 41 -10 50 -16 191 55 178 89 -9 23 -80 32 -147 20z"/>
<path d="M3571 3315 c-34 -40 -35 -44 -21 -97 14 -47 22 -52 59 -33 40 20 58
77 41 129 -15 46 -38 47 -79 1z"/>
<path d="M4344 3338 c-33 -8 -60 -47 -51 -72 10 -26 79 -21 105 7 46 49 17 84
-54 65z"/>
<path d="M1226 3298 c-16 -23 -21 -83 -10 -112 11 -28 40 -17 63 24 21 38 21
41 5 75 -19 40 -36 44 -58 13z"/>
<path d="M1580 3281 c-20 -38 -12 -87 20 -121 34 -36 44 -33 65 17 13 32 13
39 -2 72 -9 20 -22 39 -27 43 -20 14 -45 8 -56 -11z"/>
<path d="M3456 3284 c-24 -23 -19 -117 7 -122 30 -6 57 37 54 88 -2 37 -6 46
-23 48 -12 2 -29 -4 -38 -14z"/>
<path d="M877 3276 c-8 -20 29 -75 59 -86 38 -15 124 -13 130 3 10 26 -16 68
-51 82 -45 19 -131 20 -138 1z"/>
<path d="M1989 3273 c-29 -17 -59 -71 -59 -103 0 -29 44 -26 86 6 30 23 34 32
34 70 0 50 -15 56 -61 27z"/>
<path d="M4016 3255 c-22 -20 -27 -32 -24 -63 2 -29 8 -38 25 -40 12 -2 31 2
43 8 18 10 21 19 18 63 -4 62 -21 70 -62 32z"/>
<path d="M2732 3233 c-13 -23 4 -72 35 -100 31 -30 51 -29 63 2 23 62 -68 153
-98 98z"/>
<path d="M3154 3226 c-14 -35 67 -119 96 -101 19 12 10 53 -19 84 -30 33 -68
41 -77 17z"/>
<path d="M3790 3225 c-9 -11 -10 -19 -3 -26 15 -15 80 -16 95 -1 18 18 -9 42
-47 42 -18 0 -38 -7 -45 -15z"/>
<path d="M4240 3218 c-23 -25 -23 -27 -10 -48 13 -22 94 -18 120 5 27 24 25
39 -5 53 -40 19 -82 14 -105 -10z"/>
<path d="M708 3208 c-19 -36 -15 -119 8 -158 30 -52 121 -106 142 -85 4 4 7
42 7 85 0 73 -2 81 -29 109 -25 26 -95 71 -111 71 -2 0 -10 -10 -17 -22z"/>
<path d="M2336 3199 c-30 -36 -37 -115 -11 -125 27 -11 73 33 80 76 14 80 -22
106 -69 49z"/>
<path d="M1395 3213 c-51 -12 -43 -56 13 -70 34 -8 96 -3 108 10 12 11 -18 47
-44 53 -49 11 -57 11 -77 7z"/>
<path d="M1730 3190 c-26 -26 -26 -76 0 -118 41 -67 93 -12 76 80 -9 48 -47
67 -76 38z"/>
<path d="M3728 3179 c-26 -15 -22 -31 15 -56 36 -25 67 -29 98 -12 20 10 20
11 2 31 -17 19 -72 48 -90 48 -4 0 -16 -5 -25 -11z"/>
<path d="M402 3167 c-11 -13 -9 -24 8 -65 17 -39 30 -53 66 -72 51 -25 110
-36 148 -26 33 8 34 42 4 95 -26 45 -78 71 -158 78 -43 4 -59 2 -68 -10z"/>
<path d="M2933 3149 c-30 -19 -50 -60 -38 -79 4 -6 16 -10 28 -11 l22 0 -22
-9 c-24 -10 -57 -65 -48 -80 13 -21 74 -10 104 18 44 40 44 66 3 72 l-33 5 36
19 c35 19 54 54 40 75 -10 17 -57 12 -92 -10z"/>
<path d="M963 3144 c-12 -3 -27 -12 -33 -20 -16 -18 -2 -36 47 -59 30 -15 41
-15 79 -5 58 16 69 31 47 59 -18 22 -92 35 -140 25z"/>
<path d="M2677 3133 c-4 -3 -7 -27 -7 -52 0 -49 21 -91 60 -118 21 -15 24 -15
36 2 23 31 17 94 -12 137 -25 36 -59 50 -77 31z"/>
<path d="M4156 3124 c-9 -8 -16 -18 -16 -20 0 -3 20 -14 44 -25 42 -18 47 -18
85 -3 70 28 47 64 -40 64 -39 0 -63 -5 -73 -16z"/>
<path d="M1865 3120 c-3 -5 -8 -31 -12 -58 -7 -59 15 -109 53 -118 36 -9 47 7
48 70 0 48 -3 59 -29 86 -29 31 -49 37 -60 20z"/>
<path d="M3603 3123 c-7 -2 -13 -11 -13 -19 0 -10 -13 -14 -49 -14 -63 0 -84
-21 -50 -49 41 -34 76 -45 112 -34 22 6 31 15 30 27 -1 16 4 17 37 12 40 -6
90 7 90 23 0 6 -20 22 -43 36 -41 23 -85 30 -114 18z"/>
<path d="M1443 3093 c-22 -8 -14 -30 22 -62 31 -27 43 -31 95 -31 46 0 60 3
60 15 0 30 -24 64 -53 75 -31 10 -102 12 -124 3z"/>
<path d="M4082 3060 c-19 -8 -21 -13 -12 -30 15 -27 50 -40 111 -40 42 0 49 3
49 20 0 33 -104 68 -148 50z"/>
<path d="M2046 3038 c-7 -13 -18 -32 -24 -42 -18 -36 24 -135 58 -136 17 0 50
67 50 101 0 23 -27 80 -44 91 -18 12 -25 9 -40 -14z"/>
<path d="M1068 3040 c-105 -18 -81 -90 30 -90 57 0 112 22 112 44 0 34 -74 57
-142 46z"/>
<path d="M3998 2994 c-27 -26 27 -76 94 -89 48 -9 57 15 20 56 -27 30 -97 51
-114 33z"/>
<path d="M897 2983 c-4 -3 -7 -22 -7 -40 0 -36 36 -83 64 -83 21 0 39 37 32
64 -11 45 -67 82 -89 59z"/>
<path d="M1587 2964 c-23 -13 -26 -18 -17 -35 19 -34 91 -63 141 -55 24 4 50
10 58 15 23 15 3 48 -43 70 -50 24 -100 26 -139 5z"/>
<path d="M2625 2969 c-12 -19 -7 -75 8 -106 19 -35 33 -48 70 -62 24 -9 29 -8
38 12 15 34 -5 99 -42 136 -31 31 -62 40 -74 20z"/>
<path d="M4413 2966 c-35 -16 -66 -66 -61 -99 2 -17 13 -24 51 -31 96 -17 167
20 167 87 0 39 -7 44 -77 52 -31 3 -59 0 -80 -9z"/>
<path d="M4246 2955 c-43 -15 -56 -29 -56 -62 0 -45 75 -40 103 7 34 56 16 76
-47 55z"/>
<path d="M525 2953 c-105 -24 -111 -30 -72 -75 31 -36 115 -62 175 -55 123 16
147 39 95 90 -39 36 -131 55 -198 40z"/>
<path d="M2925 2943 c-32 -8 -75 -54 -75 -81 0 -24 2 -24 61 -20 50 4 65 9 81
29 23 29 37 61 31 72 -5 8 -65 8 -98 0z"/>
<path d="M1017 2933 c-4 -3 -7 -23 -7 -44 0 -29 6 -42 26 -58 33 -26 50 -26
64 -2 16 30 12 47 -16 80 -24 29 -52 39 -67 24z"/>
<path d="M1181 2930 c-18 -4 -40 -14 -47 -22 -13 -12 -12 -18 5 -40 41 -52
140 -70 204 -36 23 12 22 21 -10 53 -43 43 -96 59 -152 45z"/>
<path d="M1765 2852 c-28 -10 -50 -23 -50 -31 0 -20 82 -61 121 -61 45 0 105
30 102 50 -3 16 -55 45 -98 54 -14 3 -47 -2 -75 -12z"/>
<path d="M3794 2826 c-3 -9 8 -27 28 -45 25 -24 42 -30 75 -31 47 0 59 11 42
38 -28 44 -132 71 -145 38z"/>
<path d="M747 2809 c-24 -13 -37 -26 -35 -36 7 -36 112 -37 144 -2 15 17 14
19 -17 38 -41 25 -44 25 -92 0z"/>
<path d="M2914 2811 c-18 -11 -39 -30 -48 -43 -15 -21 -15 -24 1 -35 26 -19
74 -16 123 10 38 18 46 27 48 55 l3 32 -48 0 c-30 0 -60 -7 -79 -19z"/>
<path d="M4180 2805 c-10 -12 -10 -18 0 -30 29 -35 141 -37 148 -3 7 38 -120
66 -148 33z"/>
<path d="M3994 2804 c-23 -10 -2 -52 34 -67 74 -32 108 -29 100 8 -7 37 -96
76 -134 59z"/>
<path d="M505 2794 c-46 -11 -73 -27 -85 -49 -18 -34 -5 -45 57 -45 79 0 155
44 134 78 -8 13 -76 23 -106 16z"/>
<path d="M1351 2787 c-38 -19 -36 -35 7 -48 75 -22 154 13 107 47 -23 17 -82
18 -114 1z"/>
<path d="M2616 2774 c-23 -60 47 -174 108 -174 18 0 28 57 17 97 -18 62 -109
119 -125 77z"/>
<path d="M900 2771 c-14 -4 -40 -16 -58 -25 -44 -23 -38 -47 14 -65 37 -13 46
-13 94 5 62 22 82 46 60 68 -19 18 -77 27 -110 17z"/>
<path d="M1950 2771 c-45 -14 -91 -42 -88 -53 5 -15 65 -36 103 -37 39 0 100
30 100 49 0 26 -75 53 -115 41z"/>
<path d="M4366 2735 c-52 -48 -22 -141 37 -114 37 17 50 61 32 105 -17 40 -33
43 -69 9z"/>
<path d="M3538 2743 c-37 -6 -88 -66 -88 -103 0 -24 5 -31 26 -36 64 -16 154
46 154 106 0 38 -18 44 -92 33z"/>
<path d="M4509 2725 c-32 -17 -50 -61 -38 -93 7 -18 16 -22 47 -22 57 0 92 31
92 80 0 40 -12 50 -53 50 -12 -1 -34 -7 -48 -15z"/>
<path d="M544 2692 c-23 -9 -54 -27 -69 -40 -34 -27 -27 -38 42 -62 43 -15 55
-15 118 -3 84 17 140 54 126 82 -22 40 -145 53 -217 23z"/>
<path d="M1035 2698 c-42 -15 -49 -30 -24 -50 26 -22 68 -23 114 -4 41 18 45
33 10 46 -45 17 -69 19 -100 8z"/>
<path d="M3750 2697 c-36 -10 -49 -19 -63 -47 -9 -19 -16 -46 -15 -60 3 -22 9
-25 46 -28 38 -3 47 1 77 31 27 27 35 43 35 70 0 23 -6 37 -16 41 -9 3 -16 6
-17 5 -1 0 -22 -6 -47 -12z"/>
<path d="M4243 2695 c-17 -7 -37 -23 -43 -35 -15 -27 -9 -70 11 -83 39 -24
122 60 100 101 -15 28 -32 32 -68 17z"/>
<path d="M3885 2656 c-19 -25 -25 -44 -23 -68 3 -30 6 -33 40 -36 55 -5 90 33
86 91 -3 41 -4 42 -40 45 -31 3 -40 -2 -63 -32z"/>
<path d="M4073 2673 c-36 -18 -56 -57 -51 -99 3 -28 5 -29 52 -27 50 1 73 20
87 68 17 62 -25 90 -88 58z"/>
<path d="M725 2598 c-64 -23 -74 -53 -21 -64 62 -11 133 31 111 66 -8 13 -51
12 -90 -2z"/>
<path d="M1348 2563 c-34 -38 -51 -86 -43 -122 9 -41 41 -41 80 -1 24 25 30
41 33 90 4 58 4 60 -20 60 -14 0 -35 -12 -50 -27z"/>
<path d="M4442 2568 c-18 -18 -15 -26 18 -43 30 -16 67 -19 94 -9 24 9 19 22
-16 44 -37 22 -78 26 -96 8z"/>
<path d="M835 2558 c-32 -17 -65 -50 -65 -65 0 -20 47 -27 91 -14 47 14 105
63 95 79 -9 15 -94 15 -121 0z"/>
<path d="M1482 2552 c-40 -40 -35 -142 7 -142 12 0 28 15 42 36 21 35 21 39 8
77 -17 48 -31 55 -57 29z"/>
<path d="M1028 2548 c-47 -12 -108 -77 -108 -114 0 -25 2 -26 39 -21 46 6 95
39 123 85 20 33 19 63 -4 61 -7 -1 -30 -6 -50 -11z"/>
<path d="M1194 2543 c-39 -8 -74 -56 -81 -110 -7 -63 5 -71 60 -43 60 31 86
66 87 118 0 45 -5 47 -66 35z"/>
<path d="M1598 2523 c-24 -28 -28 -50 -17 -83 20 -55 68 -27 69 41 0 32 -14
59 -30 59 -4 0 -14 -8 -22 -17z"/>
<path d="M4322 2519 c-28 -10 -28 -23 -1 -48 27 -25 86 -35 122 -22 34 13 34
25 -1 50 -33 23 -87 32 -120 20z"/>
<path d="M3277 2458 c-26 -40 -34 -88 -21 -122 9 -24 27 -19 59 14 26 27 30
39 30 88 0 49 -3 57 -20 60 -14 2 -28 -10 -48 -40z"/>
<path d="M3525 2489 c-9 -14 3 -79 21 -106 15 -24 83 -49 108 -40 23 9 20 55
-6 93 -33 47 -107 80 -123 53z"/>
<path d="M4180 2479 c0 -48 51 -90 111 -91 37 -1 43 5 29 32 -25 47 -72 80
-114 80 -20 0 -26 -5 -26 -21z"/>
<path d="M3713 2483 c-19 -7 -15 -52 8 -89 35 -58 119 -95 133 -59 5 15 3 26
-16 78 -13 35 -95 80 -125 70z"/>
<path d="M1849 2442 c-19 -49 33 -118 69 -90 27 22 0 101 -38 111 -16 4 -23
-1 -31 -21z"/>
<path d="M4041 2443 c0 -36 47 -73 99 -80 36 -5 40 -3 40 16 0 49 -54 91 -116
91 -20 0 -24 -5 -23 -27z"/>
<path d="M3884 2445 c-3 -8 -1 -29 5 -47 19 -57 111 -90 111 -41 0 59 -99 134
-116 88z"/>
<path d="M3137 2400 c-15 -45 -15 -53 0 -95 18 -55 40 -57 59 -5 25 69 12 150
-24 150 -14 0 -23 -13 -35 -50z"/>
<path d="M1717 2423 c-30 -30 28 -123 76 -123 52 0 42 75 -15 110 -35 21 -50
24 -61 13z"/>
<path d="M1583 2373 c-37 -14 12 -107 60 -117 49 -10 57 -7 57 19 0 42 -21 73
-62 89 -21 9 -39 16 -41 15 -1 0 -8 -3 -14 -6z"/>
<path d="M1420 2325 c0 -42 31 -78 86 -101 44 -18 54 -12 54 33 0 50 -54 103
-104 103 -35 0 -36 -1 -36 -35z"/>
<path d="M1070 2314 c0 -53 53 -104 109 -104 40 0 41 0 41 36 0 51 -57 104
-112 104 -37 0 -38 -1 -38 -36z"/>
<path d="M1266 2334 c-10 -27 4 -81 27 -102 12 -11 38 -23 59 -27 49 -9 65 16
40 65 -29 57 -113 99 -126 64z"/>
<path d="M3410 2330 c-24 -24 -17 -48 16 -56 50 -13 124 18 124 51 0 32 -110
35 -140 5z"/>
<path d="M850 2267 c-30 -12 -56 -29 -58 -38 -4 -24 68 -59 123 -59 58 0 145
36 145 59 0 23 -77 61 -121 61 -19 0 -59 -11 -89 -23z"/>
<path d="M3538 2264 c-24 -10 -38 -24 -43 -41 -9 -38 7 -49 55 -34 48 14 80
43 80 71 0 25 -37 26 -92 4z"/>
<path d="M3812 2260 c-71 -43 -69 -128 1 -101 45 17 77 101 43 114 -7 3 -27
-3 -44 -13z"/>
<path d="M3953 2260 c-43 -19 -62 -52 -49 -85 12 -33 111 17 122 62 12 46 -9
53 -73 23z"/>
<path d="M3668 2257 c-28 -11 -56 -67 -43 -87 20 -33 113 22 118 70 2 20 -3
25 -23 27 -14 1 -37 -4 -52 -10z"/>
<path d="M4107 2256 c-44 -16 -66 -41 -67 -73 0 -21 5 -23 45 -23 24 0 55 5
69 11 24 11 65 73 55 84 -14 13 -68 14 -102 1z"/>
<path d="M1013 2151 c-68 -31 -53 -65 26 -64 66 1 137 46 104 66 -28 17 -91
15 -130 -2z"/>
<path d="M1843 2115 c-30 -45 -29 -82 2 -128 34 -49 53 -49 88 3 23 33 21 86
-4 126 -27 45 -57 45 -86 -1z"/>
<path d="M4015 2122 c-11 -2 -24 -8 -28 -12 -16 -15 4 -48 35 -59 39 -14 105
-14 113 -1 10 16 -4 47 -23 53 -64 20 -79 23 -97 19z"/>
<path d="M1338 2103 c-32 -8 -21 -41 18 -53 68 -23 149 20 95 50 -20 10 -80
12 -113 3z"/>
<path d="M3846 2083 c-16 -40 83 -115 123 -94 28 15 15 54 -28 86 -40 29 -86
33 -95 8z"/>
<path d="M3566 2075 c-15 -41 43 -95 104 -95 33 0 37 13 19 53 -21 46 -109 77
-123 42z"/>
<path d="M1078 2062 c-54 -19 -84 -45 -73 -62 12 -19 71 -40 112 -40 47 0 143
47 143 70 0 12 -16 22 -51 33 -62 20 -71 20 -131 -1z"/>
<path d="M1712 2064 c-33 -23 -52 -67 -52 -119 0 -51 16 -65 55 -47 47 22 72
111 46 161 -14 25 -20 26 -49 5z"/>
<path d="M3238 2059 c-22 -16 -28 -29 -28 -59 0 -45 10 -54 49 -45 39 8 68 66
52 101 -13 29 -37 30 -73 3z"/>
<path d="M3707 2074 c-30 -30 29 -103 91 -111 47 -6 50 0 31 55 -10 29 -33 44
-89 57 -14 3 -29 3 -33 -1z"/>
<path d="M3346 2008 c-20 -28 -20 -61 -1 -97 22 -43 42 -46 65 -8 25 41 25 53
-2 94 -27 39 -41 41 -62 11z"/>
<path d="M1541 1994 c-25 -18 -51 -71 -51 -104 0 -32 27 -35 69 -6 41 29 61
62 61 101 0 21 -5 25 -28 25 -15 0 -38 -7 -51 -16z"/>
<path d="M1220 1962 c-44 -24 -48 -39 -15 -52 37 -14 103 -2 120 23 31 45 -39
64 -105 29z"/>
<path d="M1405 1960 c-31 -21 -43 -41 -44 -77 -2 -46 78 -14 108 44 27 53 -6
71 -64 33z"/>
<path d="M3457 1943 c-4 -3 -7 -22 -7 -40 0 -40 48 -97 77 -91 32 6 30 90 -3
122 -16 16 -55 22 -67 9z"/>
<path d="M3597 1894 c-28 -28 22 -104 79 -118 58 -15 66 42 12 91 -25 24 -78
40 -91 27z"/>
<path d="M3714 1887 c-7 -18 19 -46 77 -83 59 -37 96 -46 142 -33 49 13 46 30
-16 83 -46 38 -53 41 -123 44 -59 3 -75 1 -80 -11z"/>
</g>
</svg>
